<svg xmlns="http://www.w3.org/2000/svg" width="512" height="512" viewBox="0 0 511.626 511.627"><path d="M34.262 127.48c22.84-28.07 53.864-50.247 93.072-66.52 39.208-16.275 82.036-24.41 128.48-24.41 46.44 0 89.268 8.135 128.477 24.41 39.21 16.273 70.234 38.445 93.075 66.52 22.842 28.075 34.26 58.67 34.26 91.79 0 28.548-8.61 55.298-25.836 80.23-17.228 24.935-40.78 45.875-70.665 62.814 2.096 7.61 4.57 14.842 7.426 21.7 2.856 6.85 5.425 12.467 7.71 16.847 2.285 4.375 5.375 9.23 9.28 14.556 3.9 5.332 6.85 9.093 8.848 11.283 1.997 2.19 5.28 5.8 9.85 10.847 4.566 5.04 7.518 8.33 8.85 9.853.192.097.952.948 2.284 2.574 1.33 1.615 2 2.42 2 2.42l1.712 2.57c.953 1.42 1.38 2.326 1.287 2.702-.095.384.095 1.335.57 2.854.478 1.526.43 2.67-.14 3.43v.286c-.763 3.234-2.284 5.853-4.568 7.85-2.284 1.993-4.858 2.992-7.71 2.992h-1.43c-12.374-1.526-23.222-3.613-32.547-6.28-49.87-12.75-93.65-35.78-131.334-69.093-14.273 1.523-28.073 2.283-41.395 2.283-46.442 0-89.27-8.135-128.48-24.414-39.207-16.276-70.232-38.444-93.07-66.517C11.42 282.985 0 252.387 0 219.267c0-33.113 11.42-63.712 34.262-91.786zm32.12 164.595c19.896 22.456 46.733 40.303 80.517 53.53 33.783 13.222 70.092 19.84 108.92 19.84 11.61 0 23.98-.76 37.113-2.285l16.274-1.708 12.277 10.852c23.408 20.558 49.582 36.83 78.513 48.82-8.754-15.413-15.416-31.784-19.986-49.1l-7.707-27.413 24.838-14.27c24.745-14.092 43.92-30.792 57.53-50.113 13.61-19.315 20.413-39.638 20.413-60.954 0-26.077-9.945-50.343-29.834-72.803-19.896-22.458-46.73-40.303-80.516-53.53-33.786-13.23-70.09-19.85-108.92-19.85-38.828 0-75.13 6.617-108.914 19.845-33.783 13.23-60.62 31.073-80.517 53.53-19.89 22.46-29.834 46.728-29.834 72.803s9.943 50.347 29.832 72.807z" data-original="#000000" class="active-path" data-old_color="#ffffff" fill="#fff"/></svg>