<svg xmlns="http://www.w3.org/2000/svg" viewBox="0 0 480 480" width="512" height="512"><path data-original="#000000" class="active-path" data-old_color="#ffffff" fill="#fff" d="M80.044 408h16v72h-16zM175.852 408h16v72h-16zM272.044 408h16v72h-16zM368.044 408h16v72h-16zM390.38 193.08c-14.144-42.56-62.832-73-118.128-73.08h-.184a130.778 130.778 0 0 0-33.36 4.328c-8.72-44.144-47.544-76.376-94.192-76.448h-.128c-52.968 0-96.112 42.512-96.184 94.832-.048 34.184 18.008 64.864 47.048 81.8-1.624 2.296-3.136 4.656-4.376 7.136-.104 0-.2.008-.304.008l-2.464.032h-.136c-48.456 0-87.904 35.792-87.968 79.84-.032 21.416 9.072 41.528 25.624 56.656 16.504 15.08 38.616 23.4 62.256 23.432l280.248.384c60.56-1.976 111.792-49.504 111.864-103.792.072-46.464-36.52-84.992-89.616-95.128zM64.212 142.728c.064-43.504 36.024-78.848 80.184-78.848h.104c39.6.056 72.416 27.84 78.88 65.584-28.752 11.8-51.096 33.96-61.136 62.568-22.112 1.344-41.704 8.88-55.616 20.448-26.064-13.648-42.464-40.104-42.416-69.752zM367.884 376l-279.976-.392c-19.648-.024-37.936-6.856-51.488-19.24-13.192-12.048-20.44-27.968-20.416-44.832.048-35.232 32.32-63.856 71.952-63.856h.12l2.824-.04c1.568-.024 3.2-.072 4.592.032 3.56.248 6.888-1.856 8.12-5.224 7.336-20.016 33.912-34.256 64.64-34.624a8.014 8.014 0 0 0 7.592-5.792c11.344-39.52 50-66.032 96.224-66.032h.16c49.496.072 94.28 28.504 104.168 66.152a7.976 7.976 0 0 0 6.52 5.872c47.8 7.376 81.152 40.336 81.088 80.168-.064 45.888-44.208 86.104-96.12 87.808zM38.694 45.377l11.33-11.297L73.99 58.115 62.663 69.413z"/><path data-original="#000000" class="active-path" data-old_color="#ffffff" fill="#fff" d="M22.43 226.04l24.032-23.96 11.296 11.332-24.033 23.96zM214.67 58.33l24.036-23.97 11.297 11.33-24.035 23.968zM136.044 0h16v32h-16zM.044 136h32v16h-32z"/></svg>